<?xml version="1.0" standalone="no"?>
<!DOCTYPE svg PUBLIC "-//W3C//DTD SVG 20010904//EN"
 "http://www.w3.org/TR/2001/REC-SVG-20010904/DTD/svg10.dtd">
<svg version="1.0" xmlns="http://www.w3.org/2000/svg"
 width="300.000000pt" height="300.000000pt" viewBox="0 0 300.000000 300.000000"
 preserveAspectRatio="xMidYMid meet">
<metadata>
Created by potrace 1.11, written by Peter Selinger 2001-2013
</metadata>
<g transform="translate(0.000000,300.000000) scale(0.100000,-0.100000)"
fill="#000000" stroke="none">
<path d="M690 2012 c-184 -111 -342 -205 -350 -209 -8 -4 -55 -32 -105 -62
-50 -31 -102 -63 -116 -71 -14 -8 -44 -26 -67 -39 l-41 -24 0 -128 0 -128 37
-23 c20 -13 45 -27 54 -33 10 -5 55 -32 100 -60 46 -27 91 -54 100 -60 10 -5
55 -32 100 -60 46 -27 90 -53 98 -57 8 -4 112 -67 230 -138 l215 -131 105 -1
c58 0 113 0 122 1 12 1 28 37 61 139 25 75 102 313 172 527 70 215 147 453
172 530 24 77 51 157 59 178 8 20 14 40 14 43 0 2 -55 3 -121 2 l-121 -3 -88
-270 c-49 -148 -132 -405 -186 -570 -53 -165 -100 -303 -103 -307 -4 -4 -85
40 -181 97 -95 58 -175 105 -176 105 -1 0 -50 29 -109 65 -59 36 -109 65 -110
65 -2 0 -35 20 -75 44 l-71 44 303 181 304 181 58 180 c31 99 56 184 54 188
-2 4 -154 -84 -338 -196z"/>
<path d="M1800 2195 c-5 -5 -36 -95 -70 -200 -34 -104 -82 -248 -105 -320
-111 -333 -285 -873 -285 -881 0 -5 170 -9 393 -9 l392 0 2 98 c1 67 -2 97
-10 99 -7 0 -23 2 -37 3 -14 1 -32 3 -41 3 -28 3 -62 98 -64 182 -3 94 45 323
77 366 4 6 28 10 54 9 28 -2 47 2 50 10 3 7 25 11 59 10 58 -2 68 1 77 26 4
11 24 18 60 22 201 24 453 176 612 370 l38 47 -356 0 -356 0 0 35 c0 38 0 38
-97 37 -18 0 -33 5 -34 11 -1 7 -2 30 -3 52 l-1 40 -173 0 c-105 0 -177 -4
-182 -10z"/>
</g>
</svg>
