<?xml version="1.0" standalone="no"?>
<!DOCTYPE svg PUBLIC "-//W3C//DTD SVG 20010904//EN"
 "http://www.w3.org/TR/2001/REC-SVG-20010904/DTD/svg10.dtd">
<svg version="1.0" xmlns="http://www.w3.org/2000/svg"
 width="512.000000pt" height="512.000000pt" viewBox="0 0 512.000000 512.000000"
 preserveAspectRatio="xMidYMid meet">
<metadata>
Created by potrace 1.11, written by Peter Selinger 2001-2013
</metadata>
<g transform="translate(0.000000,512.000000) scale(0.100000,-0.100000)"
fill="#000000" stroke="none">
<path d="M1234 3491 c-281 -168 -669 -400 -862 -516 l-352 -210 3 -215 2 -215
795 -477 795 -478 200 3 200 2 123 375 c155 470 521 1594 600 1840 l59 185
-195 3 c-107 1 -196 1 -198 -1 -3 -3 -196 -590 -513 -1564 -73 -222 -136 -403
-141 -403 -5 0 -80 42 -167 94 -87 51 -324 192 -528 312 -473 281 -534 318
-535 324 0 5 224 140 765 460 132 78 248 150 257 159 17 16 212 604 206 620
-2 5 -233 -129 -514 -298z"/>
<path d="M3060 3765 c-21 -56 -69 -200 -160 -485 -56 -173 -162 -497 -235
-720 -74 -223 -190 -579 -258 -792 l-124 -388 663 0 664 0 0 165 0 164 -82 3
-81 3 -34 61 c-18 34 -41 95 -49 135 -34 160 9 441 108 707 l19 52 89 0 c79 0
88 2 93 20 5 18 14 20 111 20 l106 0 0 30 c0 32 3 34 95 45 215 27 475 135
687 285 134 95 418 374 418 410 0 6 -217 10 -600 10 l-599 0 -3 58 -3 57 -107
3 -107 3 -3 85 -3 85 -299 2 c-290 2 -299 1 -306 -18z"/>
</g>
</svg>
